<?xml version="1.0" encoding="utf-8" standalone="no"?>
<!DOCTYPE svg PUBLIC "-//W3C//DTD SVG 1.1//EN"
  "http://www.w3.org/Graphics/SVG/1.1/DTD/svg11.dtd">
<svg xmlns:xlink="http://www.w3.org/1999/xlink" width="460.8pt" height="345.6pt" viewBox="0 0 460.8 345.6" xmlns="http://www.w3.org/2000/svg" version="1.1">
 <metadata>
  <rdf:RDF xmlns:dc="http://purl.org/dc/elements/1.1/" xmlns:cc="http://creativecommons.org/ns#" xmlns:rdf="http://www.w3.org/1999/02/22-rdf-syntax-ns#">
   <cc:Work>
    <dc:type rdf:resource="http://purl.org/dc/dcmitype/StillImage"/>
    <dc:date>2023-07-17T20:47:46.946188</dc:date>
    <dc:format>image/svg+xml</dc:format>
    <dc:creator>
     <cc:Agent>
      <dc:title>Matplotlib v3.7.2, https://matplotlib.org/</dc:title>
     </cc:Agent>
    </dc:creator>
   </cc:Work>
  </rdf:RDF>
 </metadata>
 <defs>
  <style type="text/css">*{stroke-linejoin: round; stroke-linecap: butt}</style>
 </defs>
 <g id="figure_1">
  <g id="patch_1">
   <path d="M 0 345.6 
L 460.8 345.6 
L 460.8 0 
L 0 0 
z
" style="fill: #ffffff"/>
  </g>
  <g id="axes_1">
   <g id="patch_2">
    <path d="M 57.6 307.584 
L 414.72 307.584 
L 414.72 41.472 
L 57.6 41.472 
z
" style="fill: #eaeaf2"/>
   </g>
   <g id="matplotlib.axis_1">
    <g id="xtick_1">
     <g id="line2d_1">
      <path d="M 86.838973 307.584 
L 86.838973 41.472 
" clip-path="url(#pe0927c2774)" style="fill: none; stroke: #ffffff; stroke-width: 0.8; stroke-linecap: round"/>
     </g>
     <g id="text_1">
      <!-- −30 -->
      <g style="fill: #262626" transform="translate(78.357723 321.741812) scale(0.1 -0.1)">
       <defs>
        <path id="ArialMT-2212" d="M 3381 1997 
L 356 1997 
L 356 2522 
L 3381 2522 
L 3381 1997 
z
" transform="scale(0.015625)"/>
        <path id="ArialMT-33" d="M 269 1209 
L 831 1284 
Q 928 806 1161 595 
Q 1394 384 1728 384 
Q 2125 384 2398 659 
Q 2672 934 2672 1341 
Q 2672 1728 2419 1979 
Q 2166 2231 1775 2231 
Q 1616 2231 1378 2169 
L 1441 2663 
Q 1497 2656 1531 2656 
Q 1891 2656 2178 2843 
Q 2466 3031 2466 3422 
Q 2466 3731 2256 3934 
Q 2047 4138 1716 4138 
Q 1388 4138 1169 3931 
Q 950 3725 888 3313 
L 325 3413 
Q 428 3978 793 4289 
Q 1159 4600 1703 4600 
Q 2078 4600 2393 4439 
Q 2709 4278 2876 4000 
Q 3044 3722 3044 3409 
Q 3044 3113 2884 2869 
Q 2725 2625 2413 2481 
Q 2819 2388 3044 2092 
Q 3269 1797 3269 1353 
Q 3269 753 2831 336 
Q 2394 -81 1725 -81 
Q 1122 -81 723 278 
Q 325 638 269 1209 
z
" transform="scale(0.015625)"/>
        <path id="ArialMT-30" d="M 266 2259 
Q 266 3072 433 3567 
Q 600 4063 929 4331 
Q 1259 4600 1759 4600 
Q 2128 4600 2406 4451 
Q 2684 4303 2865 4023 
Q 3047 3744 3150 3342 
Q 3253 2941 3253 2259 
Q 3253 1453 3087 958 
Q 2922 463 2592 192 
Q 2263 -78 1759 -78 
Q 1097 -78 719 397 
Q 266 969 266 2259 
z
M 844 2259 
Q 844 1131 1108 757 
Q 1372 384 1759 384 
Q 2147 384 2411 759 
Q 2675 1134 2675 2259 
Q 2675 3391 2411 3762 
Q 2147 4134 1753 4134 
Q 1366 4134 1134 3806 
Q 844 3388 844 2259 
z
" transform="scale(0.015625)"/>
       </defs>
       <use xlink:href="#ArialMT-2212"/>
       <use xlink:href="#ArialMT-33" x="58.398438"/>
       <use xlink:href="#ArialMT-30" x="114.013672"/>
      </g>
     </g>
    </g>
    <g id="xtick_2">
     <g id="line2d_2">
      <path d="M 157.486696 307.584 
L 157.486696 41.472 
" clip-path="url(#pe0927c2774)" style="fill: none; stroke: #ffffff; stroke-width: 0.8; stroke-linecap: round"/>
     </g>
     <g id="text_2">
      <!-- −20 -->
      <g style="fill: #262626" transform="translate(149.005446 321.741812) scale(0.1 -0.1)">
       <defs>
        <path id="ArialMT-32" d="M 3222 541 
L 3222 0 
L 194 0 
Q 188 203 259 391 
Q 375 700 629 1000 
Q 884 1300 1366 1694 
Q 2113 2306 2375 2664 
Q 2638 3022 2638 3341 
Q 2638 3675 2398 3904 
Q 2159 4134 1775 4134 
Q 1369 4134 1125 3890 
Q 881 3647 878 3216 
L 300 3275 
Q 359 3922 746 4261 
Q 1134 4600 1788 4600 
Q 2447 4600 2831 4234 
Q 3216 3869 3216 3328 
Q 3216 3053 3103 2787 
Q 2991 2522 2730 2228 
Q 2469 1934 1863 1422 
Q 1356 997 1212 845 
Q 1069 694 975 541 
L 3222 541 
z
" transform="scale(0.015625)"/>
       </defs>
       <use xlink:href="#ArialMT-2212"/>
       <use xlink:href="#ArialMT-32" x="58.398438"/>
       <use xlink:href="#ArialMT-30" x="114.013672"/>
      </g>
     </g>
    </g>
    <g id="xtick_3">
     <g id="line2d_3">
      <path d="M 228.134419 307.584 
L 228.134419 41.472 
" clip-path="url(#pe0927c2774)" style="fill: none; stroke: #ffffff; stroke-width: 0.8; stroke-linecap: round"/>
     </g>
     <g id="text_3">
      <!-- −10 -->
      <g style="fill: #262626" transform="translate(219.653169 321.741812) scale(0.1 -0.1)">
       <defs>
        <path id="ArialMT-31" d="M 2384 0 
L 1822 0 
L 1822 3584 
Q 1619 3391 1289 3197 
Q 959 3003 697 2906 
L 697 3450 
Q 1169 3672 1522 3987 
Q 1875 4303 2022 4600 
L 2384 4600 
L 2384 0 
z
" transform="scale(0.015625)"/>
       </defs>
       <use xlink:href="#ArialMT-2212"/>
       <use xlink:href="#ArialMT-31" x="58.398438"/>
       <use xlink:href="#ArialMT-30" x="114.013672"/>
      </g>
     </g>
    </g>
    <g id="xtick_4">
     <g id="line2d_4">
      <path d="M 298.782142 307.584 
L 298.782142 41.472 
" clip-path="url(#pe0927c2774)" style="fill: none; stroke: #ffffff; stroke-width: 0.8; stroke-linecap: round"/>
     </g>
     <g id="text_4">
      <!-- 0 -->
      <g style="fill: #262626" transform="translate(296.001673 321.741812) scale(0.1 -0.1)">
       <use xlink:href="#ArialMT-30"/>
      </g>
     </g>
    </g>
    <g id="xtick_5">
     <g id="line2d_5">
      <path d="M 369.429864 307.584 
L 369.429864 41.472 
" clip-path="url(#pe0927c2774)" style="fill: none; stroke: #ffffff; stroke-width: 0.8; stroke-linecap: round"/>
     </g>
     <g id="text_5">
      <!-- 10 -->
      <g style="fill: #262626" transform="translate(363.868927 321.741812) scale(0.1 -0.1)">
       <use xlink:href="#ArialMT-31"/>
       <use xlink:href="#ArialMT-30" x="55.615234"/>
      </g>
     </g>
    </g>
    <g id="text_6">
     <!-- x -->
     <g style="fill: #262626" transform="translate(233.66 334.887125) scale(0.1 -0.1)">
      <defs>
       <path id="ArialMT-78" d="M 47 0 
L 1259 1725 
L 138 3319 
L 841 3319 
L 1350 2541 
Q 1494 2319 1581 2169 
Q 1719 2375 1834 2534 
L 2394 3319 
L 3066 3319 
L 1919 1756 
L 3153 0 
L 2463 0 
L 1781 1031 
L 1600 1309 
L 728 0 
L 47 0 
z
" transform="scale(0.015625)"/>
      </defs>
      <use xlink:href="#ArialMT-78"/>
     </g>
    </g>
   </g>
   <g id="matplotlib.axis_2">
    <g id="ytick_1">
     <g id="line2d_6">
      <path d="M 57.6 300.465441 
L 414.72 300.465441 
" clip-path="url(#pe0927c2774)" style="fill: none; stroke: #ffffff; stroke-width: 0.8; stroke-linecap: round"/>
     </g>
     <g id="text_7">
      <!-- −30 -->
      <g style="fill: #262626" transform="translate(33.6375 304.044348) scale(0.1 -0.1)">
       <use xlink:href="#ArialMT-2212"/>
       <use xlink:href="#ArialMT-33" x="58.398438"/>
       <use xlink:href="#ArialMT-30" x="114.013672"/>
      </g>
     </g>
    </g>
    <g id="ytick_2">
     <g id="line2d_7">
      <path d="M 57.6 257.445205 
L 414.72 257.445205 
" clip-path="url(#pe0927c2774)" style="fill: none; stroke: #ffffff; stroke-width: 0.8; stroke-linecap: round"/>
     </g>
     <g id="text_8">
      <!-- −20 -->
      <g style="fill: #262626" transform="translate(33.6375 261.024111) scale(0.1 -0.1)">
       <use xlink:href="#ArialMT-2212"/>
       <use xlink:href="#ArialMT-32" x="58.398438"/>
       <use xlink:href="#ArialMT-30" x="114.013672"/>
      </g>
     </g>
    </g>
    <g id="ytick_3">
     <g id="line2d_8">
      <path d="M 57.6 214.424968 
L 414.72 214.424968 
" clip-path="url(#pe0927c2774)" style="fill: none; stroke: #ffffff; stroke-width: 0.8; stroke-linecap: round"/>
     </g>
     <g id="text_9">
      <!-- −10 -->
      <g style="fill: #262626" transform="translate(33.6375 218.003874) scale(0.1 -0.1)">
       <use xlink:href="#ArialMT-2212"/>
       <use xlink:href="#ArialMT-31" x="58.398438"/>
       <use xlink:href="#ArialMT-30" x="114.013672"/>
      </g>
     </g>
    </g>
    <g id="ytick_4">
     <g id="line2d_9">
      <path d="M 57.6 171.404731 
L 414.72 171.404731 
" clip-path="url(#pe0927c2774)" style="fill: none; stroke: #ffffff; stroke-width: 0.8; stroke-linecap: round"/>
     </g>
     <g id="text_10">
      <!-- 0 -->
      <g style="fill: #262626" transform="translate(45.039062 174.983637) scale(0.1 -0.1)">
       <use xlink:href="#ArialMT-30"/>
      </g>
     </g>
    </g>
    <g id="ytick_5">
     <g id="line2d_10">
      <path d="M 57.6 128.384494 
L 414.72 128.384494 
" clip-path="url(#pe0927c2774)" style="fill: none; stroke: #ffffff; stroke-width: 0.8; stroke-linecap: round"/>
     </g>
     <g id="text_11">
      <!-- 10 -->
      <g style="fill: #262626" transform="translate(39.478125 131.9634) scale(0.1 -0.1)">
       <use xlink:href="#ArialMT-31"/>
       <use xlink:href="#ArialMT-30" x="55.615234"/>
      </g>
     </g>
    </g>
    <g id="ytick_6">
     <g id="line2d_11">
      <path d="M 57.6 85.364257 
L 414.72 85.364257 
" clip-path="url(#pe0927c2774)" style="fill: none; stroke: #ffffff; stroke-width: 0.8; stroke-linecap: round"/>
     </g>
     <g id="text_12">
      <!-- 20 -->
      <g style="fill: #262626" transform="translate(39.478125 88.943163) scale(0.1 -0.1)">
       <use xlink:href="#ArialMT-32"/>
       <use xlink:href="#ArialMT-30" x="55.615234"/>
      </g>
     </g>
    </g>
    <g id="ytick_7">
     <g id="line2d_12">
      <path d="M 57.6 42.34402 
L 414.72 42.34402 
" clip-path="url(#pe0927c2774)" style="fill: none; stroke: #ffffff; stroke-width: 0.8; stroke-linecap: round"/>
     </g>
     <g id="text_13">
      <!-- 30 -->
      <g style="fill: #262626" transform="translate(39.478125 45.922926) scale(0.1 -0.1)">
       <use xlink:href="#ArialMT-33"/>
       <use xlink:href="#ArialMT-30" x="55.615234"/>
      </g>
     </g>
    </g>
    <g id="text_14">
     <!-- y -->
     <g style="fill: #262626" transform="translate(27.532813 177.028) rotate(-90) scale(0.1 -0.1)">
      <defs>
       <path id="ArialMT-79" d="M 397 -1278 
L 334 -750 
Q 519 -800 656 -800 
Q 844 -800 956 -737 
Q 1069 -675 1141 -563 
Q 1194 -478 1313 -144 
Q 1328 -97 1363 -6 
L 103 3319 
L 709 3319 
L 1400 1397 
Q 1534 1031 1641 628 
Q 1738 1016 1872 1384 
L 2581 3319 
L 3144 3319 
L 1881 -56 
Q 1678 -603 1566 -809 
Q 1416 -1088 1222 -1217 
Q 1028 -1347 759 -1347 
Q 597 -1347 397 -1278 
z
" transform="scale(0.015625)"/>
      </defs>
      <use xlink:href="#ArialMT-79"/>
     </g>
    </g>
   </g>
   <g id="PathCollection_1">
    <defs>
     <path id="C0_0_e7db59cd8d" d="M 0 3 
C 0.795609 3 1.55874 2.683901 2.12132 2.12132 
C 2.683901 1.55874 3 0.795609 3 -0 
C 3 -0.795609 2.683901 -1.55874 2.12132 -2.12132 
C 1.55874 -2.683901 0.795609 -3 0 -3 
C -0.795609 -3 -1.55874 -2.683901 -2.12132 -2.12132 
C -2.683901 -1.55874 -3 -0.795609 -3 0 
C -3 0.795609 -2.683901 1.55874 -2.12132 2.12132 
C -1.55874 2.683901 -0.795609 3 0 3 
z
"/>
    </defs>
    <g clip-path="url(#pe0927c2774)">
     <use xlink:href="#C0_0_e7db59cd8d" x="329.597972" y="250.983565" style="fill: #f77189; stroke: #ffffff; stroke-width: 0.48"/>
    </g>
    <g clip-path="url(#pe0927c2774)">
     <use xlink:href="#C0_0_e7db59cd8d" x="331.562685" y="250.110254" style="fill: #f77189; stroke: #ffffff; stroke-width: 0.48"/>
    </g>
    <g clip-path="url(#pe0927c2774)">
     <use xlink:href="#C0_0_e7db59cd8d" x="313.596969" y="262.061276" style="fill: #f77189; stroke: #ffffff; stroke-width: 0.48"/>
    </g>
    <g clip-path="url(#pe0927c2774)">
     <use xlink:href="#C0_0_e7db59cd8d" x="324.314935" y="256.249242" style="fill: #f77189; stroke: #ffffff; stroke-width: 0.48"/>
    </g>
    <g clip-path="url(#pe0927c2774)">
     <use xlink:href="#C0_0_e7db59cd8d" x="321.302516" y="257.475319" style="fill: #f77189; stroke: #ffffff; stroke-width: 0.48"/>
    </g>
    <g clip-path="url(#pe0927c2774)">
     <use xlink:href="#C0_0_e7db59cd8d" x="330.296678" y="251.026585" style="fill: #f77189; stroke: #ffffff; stroke-width: 0.48"/>
    </g>
    <g clip-path="url(#pe0927c2774)">
     <use xlink:href="#C0_0_e7db59cd8d" x="318.32966" y="258.598147" style="fill: #f77189; stroke: #ffffff; stroke-width: 0.48"/>
    </g>
    <g clip-path="url(#pe0927c2774)">
     <use xlink:href="#C0_0_e7db59cd8d" x="333.588155" y="250.75986" style="fill: #f77189; stroke: #ffffff; stroke-width: 0.48"/>
    </g>
    <g clip-path="url(#pe0927c2774)">
     <use xlink:href="#C0_0_e7db59cd8d" x="316.201044" y="259.854338" style="fill: #f77189; stroke: #ffffff; stroke-width: 0.48"/>
    </g>
    <g clip-path="url(#pe0927c2774)">
     <use xlink:href="#C0_0_e7db59cd8d" x="333.952697" y="250.191993" style="fill: #f77189; stroke: #ffffff; stroke-width: 0.48"/>
    </g>
    <g clip-path="url(#pe0927c2774)">
     <use xlink:href="#C0_0_e7db59cd8d" x="168.917497" y="53.568" style="fill: #e68332; stroke: #ffffff; stroke-width: 0.48"/>
    </g>
    <g clip-path="url(#pe0927c2774)">
     <use xlink:href="#C0_0_e7db59cd8d" x="103.349346" y="91.864615" style="fill: #e68332; stroke: #ffffff; stroke-width: 0.48"/>
    </g>
    <g clip-path="url(#pe0927c2774)">
     <use xlink:href="#C0_0_e7db59cd8d" x="90.519719" y="99.406062" style="fill: #e68332; stroke: #ffffff; stroke-width: 0.48"/>
    </g>
    <g clip-path="url(#pe0927c2774)">
     <use xlink:href="#C0_0_e7db59cd8d" x="135.663614" y="72.884086" style="fill: #e68332; stroke: #ffffff; stroke-width: 0.48"/>
    </g>
    <g clip-path="url(#pe0927c2774)">
     <use xlink:href="#C0_0_e7db59cd8d" x="87.510126" y="102.146451" style="fill: #e68332; stroke: #ffffff; stroke-width: 0.48"/>
    </g>
    <g clip-path="url(#pe0927c2774)">
     <use xlink:href="#C0_0_e7db59cd8d" x="160.510418" y="58.975644" style="fill: #e68332; stroke: #ffffff; stroke-width: 0.48"/>
    </g>
    <g clip-path="url(#pe0927c2774)">
     <use xlink:href="#C0_0_e7db59cd8d" x="166.932296" y="53.770195" style="fill: #e68332; stroke: #ffffff; stroke-width: 0.48"/>
    </g>
    <g clip-path="url(#pe0927c2774)">
     <use xlink:href="#C0_0_e7db59cd8d" x="150.344211" y="64.606993" style="fill: #e68332; stroke: #ffffff; stroke-width: 0.48"/>
    </g>
    <g clip-path="url(#pe0927c2774)">
     <use xlink:href="#C0_0_e7db59cd8d" x="107.899059" y="89.141434" style="fill: #e68332; stroke: #ffffff; stroke-width: 0.48"/>
    </g>
    <g clip-path="url(#pe0927c2774)">
     <use xlink:href="#C0_0_e7db59cd8d" x="262.159775" y="144.407381" style="fill: #bb9832; stroke: #ffffff; stroke-width: 0.48"/>
    </g>
    <g clip-path="url(#pe0927c2774)">
     <use xlink:href="#C0_0_e7db59cd8d" x="273.798987" y="136.268383" style="fill: #bb9832; stroke: #ffffff; stroke-width: 0.48"/>
    </g>
    <g clip-path="url(#pe0927c2774)">
     <use xlink:href="#C0_0_e7db59cd8d" x="273.416783" y="138.038665" style="fill: #bb9832; stroke: #ffffff; stroke-width: 0.48"/>
    </g>
    <g clip-path="url(#pe0927c2774)">
     <use xlink:href="#C0_0_e7db59cd8d" x="263.602401" y="144.799296" style="fill: #bb9832; stroke: #ffffff; stroke-width: 0.48"/>
    </g>
    <g clip-path="url(#pe0927c2774)">
     <use xlink:href="#C0_0_e7db59cd8d" x="269.307912" y="140.070941" style="fill: #bb9832; stroke: #ffffff; stroke-width: 0.48"/>
    </g>
    <g clip-path="url(#pe0927c2774)">
     <use xlink:href="#C0_0_e7db59cd8d" x="271.019706" y="138.448218" style="fill: #bb9832; stroke: #ffffff; stroke-width: 0.48"/>
    </g>
    <g clip-path="url(#pe0927c2774)">
     <use xlink:href="#C0_0_e7db59cd8d" x="260.877519" y="146.08474" style="fill: #bb9832; stroke: #ffffff; stroke-width: 0.48"/>
    </g>
    <g clip-path="url(#pe0927c2774)">
     <use xlink:href="#C0_0_e7db59cd8d" x="239.76374" y="159.110408" style="fill: #bb9832; stroke: #ffffff; stroke-width: 0.48"/>
    </g>
    <g clip-path="url(#pe0927c2774)">
     <use xlink:href="#C0_0_e7db59cd8d" x="250.784785" y="152.874194" style="fill: #bb9832; stroke: #ffffff; stroke-width: 0.48"/>
    </g>
    <g clip-path="url(#pe0927c2774)">
     <use xlink:href="#C0_0_e7db59cd8d" x="202.383324" y="160.785616" style="fill: #97a431; stroke: #ffffff; stroke-width: 0.48"/>
    </g>
    <g clip-path="url(#pe0927c2774)">
     <use xlink:href="#C0_0_e7db59cd8d" x="202.355065" y="161.231305" style="fill: #97a431; stroke: #ffffff; stroke-width: 0.48"/>
    </g>
    <g clip-path="url(#pe0927c2774)">
     <use xlink:href="#C0_0_e7db59cd8d" x="214.534732" y="153.793967" style="fill: #97a431; stroke: #ffffff; stroke-width: 0.48"/>
    </g>
    <g clip-path="url(#pe0927c2774)">
     <use xlink:href="#C0_0_e7db59cd8d" x="194.371872" y="166.529678" style="fill: #97a431; stroke: #ffffff; stroke-width: 0.48"/>
    </g>
    <g clip-path="url(#pe0927c2774)">
     <use xlink:href="#C0_0_e7db59cd8d" x="200.539418" y="162.557619" style="fill: #97a431; stroke: #ffffff; stroke-width: 0.48"/>
    </g>
    <g clip-path="url(#pe0927c2774)">
     <use xlink:href="#C0_0_e7db59cd8d" x="197.614602" y="165.227885" style="fill: #97a431; stroke: #ffffff; stroke-width: 0.48"/>
    </g>
    <g clip-path="url(#pe0927c2774)">
     <use xlink:href="#C0_0_e7db59cd8d" x="199.522091" y="163.743687" style="fill: #97a431; stroke: #ffffff; stroke-width: 0.48"/>
    </g>
    <g clip-path="url(#pe0927c2774)">
     <use xlink:href="#C0_0_e7db59cd8d" x="212.620179" y="157.961767" style="fill: #97a431; stroke: #ffffff; stroke-width: 0.48"/>
    </g>
    <g clip-path="url(#pe0927c2774)">
     <use xlink:href="#C0_0_e7db59cd8d" x="199.995431" y="162.969323" style="fill: #97a431; stroke: #ffffff; stroke-width: 0.48"/>
    </g>
    <g clip-path="url(#pe0927c2774)">
     <use xlink:href="#C0_0_e7db59cd8d" x="197.939582" y="163.242501" style="fill: #97a431; stroke: #ffffff; stroke-width: 0.48"/>
    </g>
    <g clip-path="url(#pe0927c2774)">
     <use xlink:href="#C0_0_e7db59cd8d" x="326.836352" y="295.488" style="fill: #50b131; stroke: #ffffff; stroke-width: 0.48"/>
    </g>
    <g clip-path="url(#pe0927c2774)">
     <use xlink:href="#C0_0_e7db59cd8d" x="333.323226" y="291.392473" style="fill: #50b131; stroke: #ffffff; stroke-width: 0.48"/>
    </g>
    <g clip-path="url(#pe0927c2774)">
     <use xlink:href="#C0_0_e7db59cd8d" x="388.250418" y="262.254867" style="fill: #50b131; stroke: #ffffff; stroke-width: 0.48"/>
    </g>
    <g clip-path="url(#pe0927c2774)">
     <use xlink:href="#C0_0_e7db59cd8d" x="348.491292" y="284.018805" style="fill: #50b131; stroke: #ffffff; stroke-width: 0.48"/>
    </g>
    <g clip-path="url(#pe0927c2774)">
     <use xlink:href="#C0_0_e7db59cd8d" x="374.459982" y="270.037228" style="fill: #50b131; stroke: #ffffff; stroke-width: 0.48"/>
    </g>
    <g clip-path="url(#pe0927c2774)">
     <use xlink:href="#C0_0_e7db59cd8d" x="398.487273" y="256.262148" style="fill: #50b131; stroke: #ffffff; stroke-width: 0.48"/>
    </g>
    <g clip-path="url(#pe0927c2774)">
     <use xlink:href="#C0_0_e7db59cd8d" x="351.929717" y="281.050409" style="fill: #50b131; stroke: #ffffff; stroke-width: 0.48"/>
    </g>
    <g clip-path="url(#pe0927c2774)">
     <use xlink:href="#C0_0_e7db59cd8d" x="90.512655" y="134.798381" style="fill: #34af84; stroke: #ffffff; stroke-width: 0.48"/>
    </g>
    <g clip-path="url(#pe0927c2774)">
     <use xlink:href="#C0_0_e7db59cd8d" x="108.089808" y="125.46342" style="fill: #34af84; stroke: #ffffff; stroke-width: 0.48"/>
    </g>
    <g clip-path="url(#pe0927c2774)">
     <use xlink:href="#C0_0_e7db59cd8d" x="77.810194" y="142.745509" style="fill: #34af84; stroke: #ffffff; stroke-width: 0.48"/>
    </g>
    <g clip-path="url(#pe0927c2774)">
     <use xlink:href="#C0_0_e7db59cd8d" x="93.564636" y="134.231805" style="fill: #34af84; stroke: #ffffff; stroke-width: 0.48"/>
    </g>
    <g clip-path="url(#pe0927c2774)">
     <use xlink:href="#C0_0_e7db59cd8d" x="74.249549" y="143.956099" style="fill: #34af84; stroke: #ffffff; stroke-width: 0.48"/>
    </g>
    <g clip-path="url(#pe0927c2774)">
     <use xlink:href="#C0_0_e7db59cd8d" x="104.825883" y="128.980324" style="fill: #34af84; stroke: #ffffff; stroke-width: 0.48"/>
    </g>
    <g clip-path="url(#pe0927c2774)">
     <use xlink:href="#C0_0_e7db59cd8d" x="73.832727" y="144.759717" style="fill: #34af84; stroke: #ffffff; stroke-width: 0.48"/>
    </g>
    <g clip-path="url(#pe0927c2774)">
     <use xlink:href="#C0_0_e7db59cd8d" x="287.300474" y="197.418638" style="fill: #36ada4; stroke: #ffffff; stroke-width: 0.48"/>
    </g>
    <g clip-path="url(#pe0927c2774)">
     <use xlink:href="#C0_0_e7db59cd8d" x="368.889409" y="152.106283" style="fill: #36ada4; stroke: #ffffff; stroke-width: 0.48"/>
    </g>
    <g clip-path="url(#pe0927c2774)">
     <use xlink:href="#C0_0_e7db59cd8d" x="314.509738" y="183.215937" style="fill: #36ada4; stroke: #ffffff; stroke-width: 0.48"/>
    </g>
    <g clip-path="url(#pe0927c2774)">
     <use xlink:href="#C0_0_e7db59cd8d" x="276.61006" y="203.401892" style="fill: #36ada4; stroke: #ffffff; stroke-width: 0.48"/>
    </g>
    <g clip-path="url(#pe0927c2774)">
     <use xlink:href="#C0_0_e7db59cd8d" x="252.025359" y="218.313997" style="fill: #36ada4; stroke: #ffffff; stroke-width: 0.48"/>
    </g>
    <g clip-path="url(#pe0927c2774)">
     <use xlink:href="#C0_0_e7db59cd8d" x="271.281809" y="206.945039" style="fill: #36ada4; stroke: #ffffff; stroke-width: 0.48"/>
    </g>
    <g clip-path="url(#pe0927c2774)">
     <use xlink:href="#C0_0_e7db59cd8d" x="289.38882" y="197.088242" style="fill: #36ada4; stroke: #ffffff; stroke-width: 0.48"/>
    </g>
    <g clip-path="url(#pe0927c2774)">
     <use xlink:href="#C0_0_e7db59cd8d" x="368.466229" y="233.513047" style="fill: #38aabf; stroke: #ffffff; stroke-width: 0.48"/>
    </g>
    <g clip-path="url(#pe0927c2774)">
     <use xlink:href="#C0_0_e7db59cd8d" x="354.481513" y="242.955989" style="fill: #38aabf; stroke: #ffffff; stroke-width: 0.48"/>
    </g>
    <g clip-path="url(#pe0927c2774)">
     <use xlink:href="#C0_0_e7db59cd8d" x="344.017172" y="248.053887" style="fill: #38aabf; stroke: #ffffff; stroke-width: 0.48"/>
    </g>
    <g clip-path="url(#pe0927c2774)">
     <use xlink:href="#C0_0_e7db59cd8d" x="358.904767" y="240.086539" style="fill: #38aabf; stroke: #ffffff; stroke-width: 0.48"/>
    </g>
    <g clip-path="url(#pe0927c2774)">
     <use xlink:href="#C0_0_e7db59cd8d" x="323.809804" y="260.555568" style="fill: #38aabf; stroke: #ffffff; stroke-width: 0.48"/>
    </g>
    <g clip-path="url(#pe0927c2774)">
     <use xlink:href="#C0_0_e7db59cd8d" x="348.638946" y="247.008495" style="fill: #38aabf; stroke: #ffffff; stroke-width: 0.48"/>
    </g>
    <g clip-path="url(#pe0927c2774)">
     <use xlink:href="#C0_0_e7db59cd8d" x="328.50929" y="257.019304" style="fill: #38aabf; stroke: #ffffff; stroke-width: 0.48"/>
    </g>
    <g clip-path="url(#pe0927c2774)">
     <use xlink:href="#C0_0_e7db59cd8d" x="288.006951" y="157.440792" style="fill: #3ba3ec; stroke: #ffffff; stroke-width: 0.48"/>
    </g>
    <g clip-path="url(#pe0927c2774)">
     <use xlink:href="#C0_0_e7db59cd8d" x="269.432252" y="169.561744" style="fill: #3ba3ec; stroke: #ffffff; stroke-width: 0.48"/>
    </g>
    <g clip-path="url(#pe0927c2774)">
     <use xlink:href="#C0_0_e7db59cd8d" x="289.780915" y="156.765374" style="fill: #3ba3ec; stroke: #ffffff; stroke-width: 0.48"/>
    </g>
    <g clip-path="url(#pe0927c2774)">
     <use xlink:href="#C0_0_e7db59cd8d" x="248.521939" y="183.741644" style="fill: #3ba3ec; stroke: #ffffff; stroke-width: 0.48"/>
    </g>
    <g clip-path="url(#pe0927c2774)">
     <use xlink:href="#C0_0_e7db59cd8d" x="296.160122" y="152.585098" style="fill: #3ba3ec; stroke: #ffffff; stroke-width: 0.48"/>
    </g>
    <g clip-path="url(#pe0927c2774)">
     <use xlink:href="#C0_0_e7db59cd8d" x="262.022012" y="174.71987" style="fill: #3ba3ec; stroke: #ffffff; stroke-width: 0.48"/>
    </g>
    <g clip-path="url(#pe0927c2774)">
     <use xlink:href="#C0_0_e7db59cd8d" x="249.782294" y="181.81993" style="fill: #3ba3ec; stroke: #ffffff; stroke-width: 0.48"/>
    </g>
    <g clip-path="url(#pe0927c2774)">
     <use xlink:href="#C0_0_e7db59cd8d" x="256.214063" y="179.266679" style="fill: #3ba3ec; stroke: #ffffff; stroke-width: 0.48"/>
    </g>
    <g clip-path="url(#pe0927c2774)">
     <use xlink:href="#C0_0_e7db59cd8d" x="271.495165" y="169.653076" style="fill: #3ba3ec; stroke: #ffffff; stroke-width: 0.48"/>
    </g>
    <g clip-path="url(#pe0927c2774)">
     <use xlink:href="#C0_0_e7db59cd8d" x="291.771273" y="154.774398" style="fill: #3ba3ec; stroke: #ffffff; stroke-width: 0.48"/>
    </g>
    <g clip-path="url(#pe0927c2774)">
     <use xlink:href="#C0_0_e7db59cd8d" x="261.969026" y="174.241227" style="fill: #3ba3ec; stroke: #ffffff; stroke-width: 0.48"/>
    </g>
    <g clip-path="url(#pe0927c2774)">
     <use xlink:href="#C0_0_e7db59cd8d" x="277.946009" y="192.653716" style="fill: #a48cf4; stroke: #ffffff; stroke-width: 0.48"/>
    </g>
    <g clip-path="url(#pe0927c2774)">
     <use xlink:href="#C0_0_e7db59cd8d" x="271.635048" y="196.660621" style="fill: #a48cf4; stroke: #ffffff; stroke-width: 0.48"/>
    </g>
    <g clip-path="url(#pe0927c2774)">
     <use xlink:href="#C0_0_e7db59cd8d" x="278.93649" y="193.305903" style="fill: #a48cf4; stroke: #ffffff; stroke-width: 0.48"/>
    </g>
    <g clip-path="url(#pe0927c2774)">
     <use xlink:href="#C0_0_e7db59cd8d" x="272.647429" y="196.966495" style="fill: #a48cf4; stroke: #ffffff; stroke-width: 0.48"/>
    </g>
    <g clip-path="url(#pe0927c2774)">
     <use xlink:href="#C0_0_e7db59cd8d" x="269.367962" y="197.807541" style="fill: #a48cf4; stroke: #ffffff; stroke-width: 0.48"/>
    </g>
    <g clip-path="url(#pe0927c2774)">
     <use xlink:href="#C0_0_e7db59cd8d" x="280.94995" y="192.418826" style="fill: #a48cf4; stroke: #ffffff; stroke-width: 0.48"/>
    </g>
    <g clip-path="url(#pe0927c2774)">
     <use xlink:href="#C0_0_e7db59cd8d" x="277.675428" y="192.950986" style="fill: #a48cf4; stroke: #ffffff; stroke-width: 0.48"/>
    </g>
    <g clip-path="url(#pe0927c2774)">
     <use xlink:href="#C0_0_e7db59cd8d" x="282.040044" y="191.376015" style="fill: #a48cf4; stroke: #ffffff; stroke-width: 0.48"/>
    </g>
    <g clip-path="url(#pe0927c2774)">
     <use xlink:href="#C0_0_e7db59cd8d" x="279.859855" y="190.563363" style="fill: #a48cf4; stroke: #ffffff; stroke-width: 0.48"/>
    </g>
    <g clip-path="url(#pe0927c2774)">
     <use xlink:href="#C0_0_e7db59cd8d" x="275.432363" y="194.242454" style="fill: #a48cf4; stroke: #ffffff; stroke-width: 0.48"/>
    </g>
    <g clip-path="url(#pe0927c2774)">
     <use xlink:href="#C0_0_e7db59cd8d" x="137.571103" y="173.592267" style="fill: #e866f4; stroke: #ffffff; stroke-width: 0.48"/>
    </g>
    <g clip-path="url(#pe0927c2774)">
     <use xlink:href="#C0_0_e7db59cd8d" x="106.676854" y="191.119185" style="fill: #e866f4; stroke: #ffffff; stroke-width: 0.48"/>
    </g>
    <g clip-path="url(#pe0927c2774)">
     <use xlink:href="#C0_0_e7db59cd8d" x="137.472196" y="173.565594" style="fill: #e866f4; stroke: #ffffff; stroke-width: 0.48"/>
    </g>
    <g clip-path="url(#pe0927c2774)">
     <use xlink:href="#C0_0_e7db59cd8d" x="75.733151" y="209.592935" style="fill: #e866f4; stroke: #ffffff; stroke-width: 0.48"/>
    </g>
    <g clip-path="url(#pe0927c2774)">
     <use xlink:href="#C0_0_e7db59cd8d" x="80.833917" y="204.522139" style="fill: #e866f4; stroke: #ffffff; stroke-width: 0.48"/>
    </g>
    <g clip-path="url(#pe0927c2774)">
     <use xlink:href="#C0_0_e7db59cd8d" x="329.325272" y="123.170441" style="fill: #f668c2; stroke: #ffffff; stroke-width: 0.48"/>
    </g>
    <g clip-path="url(#pe0927c2774)">
     <use xlink:href="#C0_0_e7db59cd8d" x="306.776638" y="137.207514" style="fill: #f668c2; stroke: #ffffff; stroke-width: 0.48"/>
    </g>
    <g clip-path="url(#pe0927c2774)">
     <use xlink:href="#C0_0_e7db59cd8d" x="307.214654" y="136.835389" style="fill: #f668c2; stroke: #ffffff; stroke-width: 0.48"/>
    </g>
    <g clip-path="url(#pe0927c2774)">
     <use xlink:href="#C0_0_e7db59cd8d" x="320.165088" y="128.711018" style="fill: #f668c2; stroke: #ffffff; stroke-width: 0.48"/>
    </g>
    <g clip-path="url(#pe0927c2774)">
     <use xlink:href="#C0_0_e7db59cd8d" x="281.671263" y="151.628758" style="fill: #f668c2; stroke: #ffffff; stroke-width: 0.48"/>
    </g>
    <g clip-path="url(#pe0927c2774)">
     <use xlink:href="#C0_0_e7db59cd8d" x="306.082171" y="137.285381" style="fill: #f668c2; stroke: #ffffff; stroke-width: 0.48"/>
    </g>
    <g clip-path="url(#pe0927c2774)">
     <use xlink:href="#C0_0_e7db59cd8d" x="285.166912" y="150.674569" style="fill: #f668c2; stroke: #ffffff; stroke-width: 0.48"/>
    </g>
    <g clip-path="url(#pe0927c2774)">
     <use xlink:href="#C0_0_e7db59cd8d" x="326.442844" y="125.248319" style="fill: #f668c2; stroke: #ffffff; stroke-width: 0.48"/>
    </g>
   </g>
   <g id="patch_3">
    <path d="M 57.6 307.584 
L 57.6 41.472 
" style="fill: none; stroke: #ffffff; stroke-width: 0.8; stroke-linejoin: miter; stroke-linecap: square"/>
   </g>
   <g id="patch_4">
    <path d="M 414.72 307.584 
L 414.72 41.472 
" style="fill: none; stroke: #ffffff; stroke-width: 0.8; stroke-linejoin: miter; stroke-linecap: square"/>
   </g>
   <g id="patch_5">
    <path d="M 57.6 307.584 
L 414.72 307.584 
" style="fill: none; stroke: #ffffff; stroke-width: 0.8; stroke-linejoin: miter; stroke-linecap: square"/>
   </g>
   <g id="patch_6">
    <path d="M 57.6 41.472 
L 414.72 41.472 
" style="fill: none; stroke: #ffffff; stroke-width: 0.8; stroke-linejoin: miter; stroke-linecap: square"/>
   </g>
   <g id="text_15">
    <!-- S3: 100 points, 12 clusters -->
    <g style="fill: #262626" transform="translate(165.456563 35.472) scale(0.12 -0.12)">
     <defs>
      <path id="ArialMT-53" d="M 288 1472 
L 859 1522 
Q 900 1178 1048 958 
Q 1197 738 1509 602 
Q 1822 466 2213 466 
Q 2559 466 2825 569 
Q 3091 672 3220 851 
Q 3350 1031 3350 1244 
Q 3350 1459 3225 1620 
Q 3100 1781 2813 1891 
Q 2628 1963 1997 2114 
Q 1366 2266 1113 2400 
Q 784 2572 623 2826 
Q 463 3081 463 3397 
Q 463 3744 659 4045 
Q 856 4347 1234 4503 
Q 1613 4659 2075 4659 
Q 2584 4659 2973 4495 
Q 3363 4331 3572 4012 
Q 3781 3694 3797 3291 
L 3216 3247 
Q 3169 3681 2898 3903 
Q 2628 4125 2100 4125 
Q 1550 4125 1298 3923 
Q 1047 3722 1047 3438 
Q 1047 3191 1225 3031 
Q 1400 2872 2139 2705 
Q 2878 2538 3153 2413 
Q 3553 2228 3743 1945 
Q 3934 1663 3934 1294 
Q 3934 928 3725 604 
Q 3516 281 3123 101 
Q 2731 -78 2241 -78 
Q 1619 -78 1198 103 
Q 778 284 539 648 
Q 300 1013 288 1472 
z
" transform="scale(0.015625)"/>
      <path id="ArialMT-3a" d="M 578 2678 
L 578 3319 
L 1219 3319 
L 1219 2678 
L 578 2678 
z
M 578 0 
L 578 641 
L 1219 641 
L 1219 0 
L 578 0 
z
" transform="scale(0.015625)"/>
      <path id="ArialMT-20" transform="scale(0.015625)"/>
      <path id="ArialMT-70" d="M 422 -1272 
L 422 3319 
L 934 3319 
L 934 2888 
Q 1116 3141 1344 3267 
Q 1572 3394 1897 3394 
Q 2322 3394 2647 3175 
Q 2972 2956 3137 2557 
Q 3303 2159 3303 1684 
Q 3303 1175 3120 767 
Q 2938 359 2589 142 
Q 2241 -75 1856 -75 
Q 1575 -75 1351 44 
Q 1128 163 984 344 
L 984 -1272 
L 422 -1272 
z
M 931 1641 
Q 931 1000 1190 694 
Q 1450 388 1819 388 
Q 2194 388 2461 705 
Q 2728 1022 2728 1688 
Q 2728 2322 2467 2637 
Q 2206 2953 1844 2953 
Q 1484 2953 1207 2617 
Q 931 2281 931 1641 
z
" transform="scale(0.015625)"/>
      <path id="ArialMT-6f" d="M 213 1659 
Q 213 2581 725 3025 
Q 1153 3394 1769 3394 
Q 2453 3394 2887 2945 
Q 3322 2497 3322 1706 
Q 3322 1066 3130 698 
Q 2938 331 2570 128 
Q 2203 -75 1769 -75 
Q 1072 -75 642 372 
Q 213 819 213 1659 
z
M 791 1659 
Q 791 1022 1069 705 
Q 1347 388 1769 388 
Q 2188 388 2466 706 
Q 2744 1025 2744 1678 
Q 2744 2294 2464 2611 
Q 2184 2928 1769 2928 
Q 1347 2928 1069 2612 
Q 791 2297 791 1659 
z
" transform="scale(0.015625)"/>
      <path id="ArialMT-69" d="M 425 3934 
L 425 4581 
L 988 4581 
L 988 3934 
L 425 3934 
z
M 425 0 
L 425 3319 
L 988 3319 
L 988 0 
L 425 0 
z
" transform="scale(0.015625)"/>
      <path id="ArialMT-6e" d="M 422 0 
L 422 3319 
L 928 3319 
L 928 2847 
Q 1294 3394 1984 3394 
Q 2284 3394 2536 3286 
Q 2788 3178 2913 3003 
Q 3038 2828 3088 2588 
Q 3119 2431 3119 2041 
L 3119 0 
L 2556 0 
L 2556 2019 
Q 2556 2363 2490 2533 
Q 2425 2703 2258 2804 
Q 2091 2906 1866 2906 
Q 1506 2906 1245 2678 
Q 984 2450 984 1813 
L 984 0 
L 422 0 
z
" transform="scale(0.015625)"/>
      <path id="ArialMT-74" d="M 1650 503 
L 1731 6 
Q 1494 -44 1306 -44 
Q 1000 -44 831 53 
Q 663 150 594 308 
Q 525 466 525 972 
L 525 2881 
L 113 2881 
L 113 3319 
L 525 3319 
L 525 4141 
L 1084 4478 
L 1084 3319 
L 1650 3319 
L 1650 2881 
L 1084 2881 
L 1084 941 
Q 1084 700 1114 631 
Q 1144 563 1211 522 
Q 1278 481 1403 481 
Q 1497 481 1650 503 
z
" transform="scale(0.015625)"/>
      <path id="ArialMT-73" d="M 197 991 
L 753 1078 
Q 800 744 1014 566 
Q 1228 388 1613 388 
Q 2000 388 2187 545 
Q 2375 703 2375 916 
Q 2375 1106 2209 1216 
Q 2094 1291 1634 1406 
Q 1016 1563 777 1677 
Q 538 1791 414 1992 
Q 291 2194 291 2438 
Q 291 2659 392 2848 
Q 494 3038 669 3163 
Q 800 3259 1026 3326 
Q 1253 3394 1513 3394 
Q 1903 3394 2198 3281 
Q 2494 3169 2634 2976 
Q 2775 2784 2828 2463 
L 2278 2388 
Q 2241 2644 2061 2787 
Q 1881 2931 1553 2931 
Q 1166 2931 1000 2803 
Q 834 2675 834 2503 
Q 834 2394 903 2306 
Q 972 2216 1119 2156 
Q 1203 2125 1616 2013 
Q 2213 1853 2448 1751 
Q 2684 1650 2818 1456 
Q 2953 1263 2953 975 
Q 2953 694 2789 445 
Q 2625 197 2315 61 
Q 2006 -75 1616 -75 
Q 969 -75 630 194 
Q 291 463 197 991 
z
" transform="scale(0.015625)"/>
      <path id="ArialMT-2c" d="M 569 0 
L 569 641 
L 1209 641 
L 1209 0 
Q 1209 -353 1084 -570 
Q 959 -788 688 -906 
L 531 -666 
Q 709 -588 793 -436 
Q 878 -284 888 0 
L 569 0 
z
" transform="scale(0.015625)"/>
      <path id="ArialMT-63" d="M 2588 1216 
L 3141 1144 
Q 3050 572 2676 248 
Q 2303 -75 1759 -75 
Q 1078 -75 664 370 
Q 250 816 250 1647 
Q 250 2184 428 2587 
Q 606 2991 970 3192 
Q 1334 3394 1763 3394 
Q 2303 3394 2647 3120 
Q 2991 2847 3088 2344 
L 2541 2259 
Q 2463 2594 2264 2762 
Q 2066 2931 1784 2931 
Q 1359 2931 1093 2626 
Q 828 2322 828 1663 
Q 828 994 1084 691 
Q 1341 388 1753 388 
Q 2084 388 2306 591 
Q 2528 794 2588 1216 
z
" transform="scale(0.015625)"/>
      <path id="ArialMT-6c" d="M 409 0 
L 409 4581 
L 972 4581 
L 972 0 
L 409 0 
z
" transform="scale(0.015625)"/>
      <path id="ArialMT-75" d="M 2597 0 
L 2597 488 
Q 2209 -75 1544 -75 
Q 1250 -75 995 37 
Q 741 150 617 320 
Q 494 491 444 738 
Q 409 903 409 1263 
L 409 3319 
L 972 3319 
L 972 1478 
Q 972 1038 1006 884 
Q 1059 663 1231 536 
Q 1403 409 1656 409 
Q 1909 409 2131 539 
Q 2353 669 2445 892 
Q 2538 1116 2538 1541 
L 2538 3319 
L 3100 3319 
L 3100 0 
L 2597 0 
z
" transform="scale(0.015625)"/>
      <path id="ArialMT-65" d="M 2694 1069 
L 3275 997 
Q 3138 488 2766 206 
Q 2394 -75 1816 -75 
Q 1088 -75 661 373 
Q 234 822 234 1631 
Q 234 2469 665 2931 
Q 1097 3394 1784 3394 
Q 2450 3394 2872 2941 
Q 3294 2488 3294 1666 
Q 3294 1616 3291 1516 
L 816 1516 
Q 847 969 1125 678 
Q 1403 388 1819 388 
Q 2128 388 2347 550 
Q 2566 713 2694 1069 
z
M 847 1978 
L 2700 1978 
Q 2663 2397 2488 2606 
Q 2219 2931 1791 2931 
Q 1403 2931 1139 2672 
Q 875 2413 847 1978 
z
" transform="scale(0.015625)"/>
      <path id="ArialMT-72" d="M 416 0 
L 416 3319 
L 922 3319 
L 922 2816 
Q 1116 3169 1280 3281 
Q 1444 3394 1641 3394 
Q 1925 3394 2219 3213 
L 2025 2691 
Q 1819 2813 1613 2813 
Q 1428 2813 1281 2702 
Q 1134 2591 1072 2394 
Q 978 2094 978 1738 
L 978 0 
L 416 0 
z
" transform="scale(0.015625)"/>
     </defs>
     <use xlink:href="#ArialMT-53"/>
     <use xlink:href="#ArialMT-33" x="66.699219"/>
     <use xlink:href="#ArialMT-3a" x="122.314453"/>
     <use xlink:href="#ArialMT-20" x="150.097656"/>
     <use xlink:href="#ArialMT-31" x="177.880859"/>
     <use xlink:href="#ArialMT-30" x="233.496094"/>
     <use xlink:href="#ArialMT-30" x="289.111328"/>
     <use xlink:href="#ArialMT-20" x="344.726562"/>
     <use xlink:href="#ArialMT-70" x="372.509766"/>
     <use xlink:href="#ArialMT-6f" x="428.125"/>
     <use xlink:href="#ArialMT-69" x="483.740234"/>
     <use xlink:href="#ArialMT-6e" x="505.957031"/>
     <use xlink:href="#ArialMT-74" x="561.572266"/>
     <use xlink:href="#ArialMT-73" x="589.355469"/>
     <use xlink:href="#ArialMT-2c" x="639.355469"/>
     <use xlink:href="#ArialMT-20" x="667.138672"/>
     <use xlink:href="#ArialMT-31" x="694.921875"/>
     <use xlink:href="#ArialMT-32" x="750.537109"/>
     <use xlink:href="#ArialMT-20" x="806.152344"/>
     <use xlink:href="#ArialMT-63" x="833.935547"/>
     <use xlink:href="#ArialMT-6c" x="883.935547"/>
     <use xlink:href="#ArialMT-75" x="906.152344"/>
     <use xlink:href="#ArialMT-73" x="961.767578"/>
     <use xlink:href="#ArialMT-74" x="1011.767578"/>
     <use xlink:href="#ArialMT-65" x="1039.550781"/>
     <use xlink:href="#ArialMT-72" x="1095.166016"/>
     <use xlink:href="#ArialMT-73" x="1128.466797"/>
    </g>
   </g>
  </g>
 </g>
 <defs>
  <clipPath id="pe0927c2774">
   <rect x="57.6" y="41.472" width="357.12" height="266.112"/>
  </clipPath>
 </defs>
</svg>
